<mxfile host="app.diagrams.net" modified="2023-07-19T15:22:38.430Z" agent="Mozilla/5.0 (X11; Ubuntu; Linux x86_64; rv:109.0) Gecko/20100101 Firefox/115.0" etag="_X5BZoW8wUGSHcBkyJJD" version="21.6.3" type="device">
  <diagram id="C5RBs43oDa-KdzZeNtuy" name="Page-1">
    <mxGraphModel dx="1372" dy="795" grid="1" gridSize="10" guides="1" tooltips="1" connect="1" arrows="1" fold="1" page="1" pageScale="1" pageWidth="827" pageHeight="1169" math="0" shadow="0">
      <root>
        <mxCell id="WIyWlLk6GJQsqaUBKTNV-0" />
        <mxCell id="WIyWlLk6GJQsqaUBKTNV-1" parent="WIyWlLk6GJQsqaUBKTNV-0" />
        <mxCell id="c2My8j1zMIpxn0Pv0VPL-42" value="" style="edgeStyle=orthogonalEdgeStyle;rounded=0;orthogonalLoop=1;jettySize=auto;html=1;" edge="1" parent="WIyWlLk6GJQsqaUBKTNV-1" source="c2My8j1zMIpxn0Pv0VPL-23" target="c2My8j1zMIpxn0Pv0VPL-24">
          <mxGeometry relative="1" as="geometry" />
        </mxCell>
        <mxCell id="c2My8j1zMIpxn0Pv0VPL-23" value="&lt;div&gt;miRTarBase&lt;/div&gt;" style="ellipse;shape=cloud;whiteSpace=wrap;html=1;" vertex="1" parent="WIyWlLk6GJQsqaUBKTNV-1">
          <mxGeometry x="40" y="40" width="120" height="80" as="geometry" />
        </mxCell>
        <mxCell id="c2My8j1zMIpxn0Pv0VPL-43" value="" style="edgeStyle=orthogonalEdgeStyle;rounded=0;orthogonalLoop=1;jettySize=auto;html=1;" edge="1" parent="WIyWlLk6GJQsqaUBKTNV-1" source="c2My8j1zMIpxn0Pv0VPL-24" target="c2My8j1zMIpxn0Pv0VPL-25">
          <mxGeometry relative="1" as="geometry" />
        </mxCell>
        <mxCell id="c2My8j1zMIpxn0Pv0VPL-24" value="importaciÃ³n" style="rhombus;whiteSpace=wrap;html=1;" vertex="1" parent="WIyWlLk6GJQsqaUBKTNV-1">
          <mxGeometry x="60" y="160" width="80" height="80" as="geometry" />
        </mxCell>
        <mxCell id="c2My8j1zMIpxn0Pv0VPL-37" style="edgeStyle=orthogonalEdgeStyle;rounded=0;orthogonalLoop=1;jettySize=auto;html=1;entryX=0;entryY=0.5;entryDx=0;entryDy=0;" edge="1" parent="WIyWlLk6GJQsqaUBKTNV-1" source="c2My8j1zMIpxn0Pv0VPL-25" target="c2My8j1zMIpxn0Pv0VPL-31">
          <mxGeometry relative="1" as="geometry" />
        </mxCell>
        <mxCell id="c2My8j1zMIpxn0Pv0VPL-25" value="&lt;div&gt;MongoDB&lt;/div&gt;" style="shape=cylinder3;whiteSpace=wrap;html=1;boundedLbl=1;backgroundOutline=1;size=15;" vertex="1" parent="WIyWlLk6GJQsqaUBKTNV-1">
          <mxGeometry x="40" y="280" width="120" height="80" as="geometry" />
        </mxCell>
        <mxCell id="c2My8j1zMIpxn0Pv0VPL-45" style="edgeStyle=orthogonalEdgeStyle;rounded=0;orthogonalLoop=1;jettySize=auto;html=1;exitX=0.875;exitY=0.5;exitDx=0;exitDy=0;exitPerimeter=0;entryX=0.5;entryY=0;entryDx=0;entryDy=0;" edge="1" parent="WIyWlLk6GJQsqaUBKTNV-1" source="c2My8j1zMIpxn0Pv0VPL-26" target="c2My8j1zMIpxn0Pv0VPL-33">
          <mxGeometry relative="1" as="geometry">
            <Array as="points">
              <mxPoint x="500" y="80" />
            </Array>
          </mxGeometry>
        </mxCell>
        <mxCell id="c2My8j1zMIpxn0Pv0VPL-26" value="g:Profiler" style="ellipse;shape=cloud;whiteSpace=wrap;html=1;" vertex="1" parent="WIyWlLk6GJQsqaUBKTNV-1">
          <mxGeometry x="340" y="40" width="120" height="80" as="geometry" />
        </mxCell>
        <mxCell id="c2My8j1zMIpxn0Pv0VPL-50" style="edgeStyle=orthogonalEdgeStyle;rounded=0;orthogonalLoop=1;jettySize=auto;html=1;exitX=0.5;exitY=1;exitDx=0;exitDy=0;entryX=1;entryY=0.5;entryDx=0;entryDy=0;" edge="1" parent="WIyWlLk6GJQsqaUBKTNV-1" source="c2My8j1zMIpxn0Pv0VPL-27" target="c2My8j1zMIpxn0Pv0VPL-30">
          <mxGeometry relative="1" as="geometry" />
        </mxCell>
        <mxCell id="c2My8j1zMIpxn0Pv0VPL-27" value="API REST" style="rounded=1;whiteSpace=wrap;html=1;" vertex="1" parent="WIyWlLk6GJQsqaUBKTNV-1">
          <mxGeometry x="440" y="290" width="120" height="60" as="geometry" />
        </mxCell>
        <mxCell id="c2My8j1zMIpxn0Pv0VPL-55" value="" style="edgeStyle=orthogonalEdgeStyle;rounded=0;orthogonalLoop=1;jettySize=auto;html=1;" edge="1" parent="WIyWlLk6GJQsqaUBKTNV-1" source="c2My8j1zMIpxn0Pv0VPL-28" target="c2My8j1zMIpxn0Pv0VPL-54">
          <mxGeometry relative="1" as="geometry" />
        </mxCell>
        <mxCell id="c2My8j1zMIpxn0Pv0VPL-28" value="usuario" style="shape=umlActor;verticalLabelPosition=bottom;verticalAlign=top;html=1;outlineConnect=0;" vertex="1" parent="WIyWlLk6GJQsqaUBKTNV-1">
          <mxGeometry x="650" y="420" width="20" height="40" as="geometry" />
        </mxCell>
        <mxCell id="c2My8j1zMIpxn0Pv0VPL-36" style="edgeStyle=orthogonalEdgeStyle;rounded=0;orthogonalLoop=1;jettySize=auto;html=1;entryX=0.5;entryY=1;entryDx=0;entryDy=0;entryPerimeter=0;" edge="1" parent="WIyWlLk6GJQsqaUBKTNV-1" source="c2My8j1zMIpxn0Pv0VPL-30" target="c2My8j1zMIpxn0Pv0VPL-25">
          <mxGeometry relative="1" as="geometry" />
        </mxCell>
        <mxCell id="c2My8j1zMIpxn0Pv0VPL-30" value="consulta" style="rhombus;whiteSpace=wrap;html=1;" vertex="1" parent="WIyWlLk6GJQsqaUBKTNV-1">
          <mxGeometry x="260" y="400" width="80" height="80" as="geometry" />
        </mxCell>
        <mxCell id="c2My8j1zMIpxn0Pv0VPL-51" style="edgeStyle=orthogonalEdgeStyle;rounded=0;orthogonalLoop=1;jettySize=auto;html=1;exitX=1;exitY=0.5;exitDx=0;exitDy=0;entryX=0;entryY=0.5;entryDx=0;entryDy=0;" edge="1" parent="WIyWlLk6GJQsqaUBKTNV-1" source="c2My8j1zMIpxn0Pv0VPL-31" target="c2My8j1zMIpxn0Pv0VPL-27">
          <mxGeometry relative="1" as="geometry" />
        </mxCell>
        <mxCell id="c2My8j1zMIpxn0Pv0VPL-52" style="edgeStyle=orthogonalEdgeStyle;rounded=0;orthogonalLoop=1;jettySize=auto;html=1;exitX=0.5;exitY=0;exitDx=0;exitDy=0;entryX=0.5;entryY=1;entryDx=0;entryDy=0;" edge="1" parent="WIyWlLk6GJQsqaUBKTNV-1" source="c2My8j1zMIpxn0Pv0VPL-31" target="c2My8j1zMIpxn0Pv0VPL-32">
          <mxGeometry relative="1" as="geometry" />
        </mxCell>
        <mxCell id="c2My8j1zMIpxn0Pv0VPL-31" value="MTIs" style="ellipse;whiteSpace=wrap;html=1;" vertex="1" parent="WIyWlLk6GJQsqaUBKTNV-1">
          <mxGeometry x="260" y="280" width="80" height="80" as="geometry" />
        </mxCell>
        <mxCell id="c2My8j1zMIpxn0Pv0VPL-41" style="edgeStyle=orthogonalEdgeStyle;rounded=0;orthogonalLoop=1;jettySize=auto;html=1;entryX=0.16;entryY=0.55;entryDx=0;entryDy=0;entryPerimeter=0;" edge="1" parent="WIyWlLk6GJQsqaUBKTNV-1" source="c2My8j1zMIpxn0Pv0VPL-32" target="c2My8j1zMIpxn0Pv0VPL-26">
          <mxGeometry relative="1" as="geometry">
            <Array as="points">
              <mxPoint x="300" y="84" />
            </Array>
          </mxGeometry>
        </mxCell>
        <mxCell id="c2My8j1zMIpxn0Pv0VPL-32" value="genes" style="ellipse;whiteSpace=wrap;html=1;" vertex="1" parent="WIyWlLk6GJQsqaUBKTNV-1">
          <mxGeometry x="260" y="160" width="80" height="80" as="geometry" />
        </mxCell>
        <mxCell id="c2My8j1zMIpxn0Pv0VPL-47" value="" style="edgeStyle=orthogonalEdgeStyle;rounded=0;orthogonalLoop=1;jettySize=auto;html=1;" edge="1" parent="WIyWlLk6GJQsqaUBKTNV-1" source="c2My8j1zMIpxn0Pv0VPL-33" target="c2My8j1zMIpxn0Pv0VPL-27">
          <mxGeometry relative="1" as="geometry" />
        </mxCell>
        <mxCell id="c2My8j1zMIpxn0Pv0VPL-33" value="funciones" style="ellipse;whiteSpace=wrap;html=1;" vertex="1" parent="WIyWlLk6GJQsqaUBKTNV-1">
          <mxGeometry x="460" y="160" width="80" height="80" as="geometry" />
        </mxCell>
        <mxCell id="c2My8j1zMIpxn0Pv0VPL-56" value="" style="edgeStyle=orthogonalEdgeStyle;rounded=0;orthogonalLoop=1;jettySize=auto;html=1;" edge="1" parent="WIyWlLk6GJQsqaUBKTNV-1" source="c2My8j1zMIpxn0Pv0VPL-54" target="c2My8j1zMIpxn0Pv0VPL-27">
          <mxGeometry relative="1" as="geometry" />
        </mxCell>
        <mxCell id="c2My8j1zMIpxn0Pv0VPL-54" value="consulta" style="rhombus;whiteSpace=wrap;html=1;" vertex="1" parent="WIyWlLk6GJQsqaUBKTNV-1">
          <mxGeometry x="620" y="280" width="80" height="80" as="geometry" />
        </mxCell>
      </root>
    </mxGraphModel>
  </diagram>
</mxfile>
